<?xml version="1.0" encoding="UTF-8" standalone="no"?><svg xmlns="http://www.w3.org/2000/svg" xmlns:xlink="http://www.w3.org/1999/xlink" contentStyleType="text/css" height="844px" preserveAspectRatio="none" style="width:485px;height:844px;background:#FFFFFF;" version="1.1" viewBox="0 0 485 844" width="485px" zoomAndPan="magnify"><defs/><g><rect fill="none" height="26.2969" id="_title" style="stroke:none;stroke-width:1.0;" width="118" x="176.7137" y="5"/><text fill="#000000" font-family="sans-serif" font-size="14" font-weight="bold" lengthAdjust="spacing" textLength="108" x="181.7137" y="22.9951">Physical View</text><!--MD5=[2de28e47f9582cb6df153deeec479525]
cluster browser--><g id="cluster_browser"><polygon fill="none" points="53.4274,131.2969,63.4274,121.2969,468.4274,121.2969,468.4274,398.2969,458.4274,408.2969,53.4274,408.2969,53.4274,131.2969" style="stroke:#181818;stroke-width:1.0;"/><line style="stroke:#181818;stroke-width:1.0;" x1="458.4274" x2="468.4274" y1="131.2969" y2="121.2969"/><line style="stroke:#181818;stroke-width:1.0;" x1="53.4274" x2="458.4274" y1="131.2969" y2="131.2969"/><line style="stroke:#181818;stroke-width:1.0;" x1="458.4274" x2="458.4274" y1="131.2969" y2="408.2969"/><text fill="#000000" font-family="sans-serif" font-size="14" font-weight="bold" lengthAdjust="spacing" textLength="67" x="223.4274" y="147.292">browser</text></g><!--MD5=[23cbaadc18b1780d966e07254adaec4d]
cluster frontend--><g id="cluster_frontend"><polygon fill="none" points="101.4274,195.2969,111.4274,185.2969,428.4274,185.2969,428.4274,358.2969,418.4274,368.2969,101.4274,368.2969,101.4274,195.2969" style="stroke:#181818;stroke-width:1.0;"/><line style="stroke:#181818;stroke-width:1.0;" x1="418.4274" x2="428.4274" y1="195.2969" y2="185.2969"/><line style="stroke:#181818;stroke-width:1.0;" x1="101.4274" x2="418.4274" y1="195.2969" y2="195.2969"/><line style="stroke:#181818;stroke-width:1.0;" x1="418.4274" x2="418.4274" y1="195.2969" y2="368.2969"/><text fill="#000000" font-family="sans-serif" font-size="14" font-weight="bold" lengthAdjust="spacing" textLength="108" x="206.9274" y="211.292">Frontend App</text></g><!--MD5=[98c3116e9ee96f3a259677dbedbb5a61]
cluster vue--><g id="cluster_vue"><polygon fill="none" points="141.4274,251.2969,151.4274,241.2969,396.4274,241.2969,396.4274,326.2969,386.4274,336.2969,141.4274,336.2969,141.4274,251.2969" style="stroke:#181818;stroke-width:1.0;"/><line style="stroke:#181818;stroke-width:1.0;" x1="386.4274" x2="396.4274" y1="251.2969" y2="241.2969"/><line style="stroke:#181818;stroke-width:1.0;" x1="141.4274" x2="386.4274" y1="251.2969" y2="251.2969"/><line style="stroke:#181818;stroke-width:1.0;" x1="386.4274" x2="386.4274" y1="251.2969" y2="336.2969"/><text fill="#000000" font-family="sans-serif" font-size="14" font-weight="bold" lengthAdjust="spacing" textLength="45" x="242.4274" y="267.292">VueJS</text></g><!--MD5=[ee5e8230e68e644357958932f455d434]
cluster Azure--><g id="cluster_Azure"><path d="M33.3227,450.5771 C39.1574,437.3896 49.4349,437.6133 57.4442,448.388 C68.4081,435.6438 77.794,436.9674 86.9761,450.3982 C92.8174,436.6011 104.6427,434.8981 112.9876,447.9751 C120.5757,434.1092 130.5738,434.1922 139.1193,447.0385 C144.7914,435.2704 156.1996,433.7898 164.4908,444.0175 C173.2752,429.9792 185.8391,433.0786 192.1902,446.4744 C202.4633,435.2614 210.5362,436.4036 217.5746,449.8097 C225.242,438.2772 233.9053,437.5485 241.8124,449.563 C249.4084,434.5666 261.1851,437.4283 269.8742,448.3809 C283.4899,436.1748 294.227,438.2339 301.4274,455.2969 C302.7858,456.1871 303.305,457.0787 301.7943,458.3174 C314.8551,463.8659 315.3077,471.5539 305.3723,480.7676 C320.351,489.7242 319.1431,498.7227 306.5833,508.8661 C315.9292,515.9058 316.7403,525.5517 306.0753,532.1549 C319.7748,540.0175 318.4258,550.0251 306.4048,558.2128 C318.6343,565.4931 319.5216,573.7143 309.1156,583.428 C320.8736,590.5062 320.7585,598.4697 310.2102,606.6016 C321.4321,613.7879 322.9178,625.1696 310.2471,632.3902 C321.8072,639.4388 319.7928,648.3737 310.2658,655.4393 C321.8073,663.6716 323.4416,675.7615 308.575,682.3336 C319.5034,691.2589 316.5479,699.4862 305.7403,705.784 C318.5454,713.5828 319.9333,726.0993 304.9895,733.1364 C319.1814,739.3053 317.1674,749.6686 307.3659,758.1198 C315.8557,765.7611 315.3014,776.6475 303.8041,781.2051 C315.7382,794.5676 309.97,807.2208 294.4274,812.2969 C296.5302,812.1875 297.2044,813.1203 296.6423,815.1095 C288.8048,829.2339 278.842,825.7873 270.9016,815.2166 C264.7002,830.7737 253.2803,833.5798 242.4732,819.6583 C234.7942,831.2484 227.2899,831.9832 219.233,820.0314 C212.7663,837.0462 200.7349,836.2526 190.1357,824.1629 C182.3261,836.6801 170.8724,834.9933 163.1025,824.117 C155.6801,835.4786 146.7022,835.5735 139.1383,824.2666 C131.1688,835.8911 117.7777,835.3249 112.325,821.604 C104.0305,831.9124 91.978,833.0278 85.3753,819.6769 C76.9374,830.4986 64.8846,828.7526 60.9805,815.1488 C46.7504,829.2045 28.8378,824.8599 23.4274,805.2969 C25.6892,805.297 26.3249,806.5362 25.412,808.502 C13.7184,800.6599 12.7322,787.6392 26.507,780.804 C14.7213,773.6453 12.1752,766.2077 22.3472,755.4468 C9.1987,748.8183 11.5501,739.9264 21.1701,732.1476 C11.4912,725.3681 9.1115,717.5774 19.776,709.5433 C6.6538,701.1265 9.9032,692.8233 19.9596,684.5769 C6.4223,676.8903 6.7694,664.886 20.0828,657.3207 C6.2182,649.7104 7.8631,640.477 18.4306,631.3145 C6,623.2823 8.2525,610.8186 21.6256,606.0496 C10.2625,598.3224 8.4772,590.5611 19.89,581.2404 C7.2858,573.4097 8.8045,563.0973 20.2759,555.6295 C11.4937,547.3107 9.9376,536.8832 23.7375,531.8518 C9.7641,522.9547 12.6406,514.3598 24.3321,506.0543 C15.0744,499.5104 15.4833,489.7846 25.5539,484.3276 C9.8176,470.3157 13.1347,457.8413 30.4274,448.2969 C32.1956,447.8101 33.4202,448.6951 33.3227,450.5771 " fill="none" style="stroke:#181818;stroke-width:1.0;"/><text fill="#000000" font-family="sans-serif" font-size="14" font-weight="bold" lengthAdjust="spacing" textLength="47" x="138.9274" y="466.292">Azure</text></g><!--MD5=[5ec7eedd57310648f8059ffb2621ca4b]
cluster docker--><g id="cluster_docker"><polygon fill="none" points="39.4274,493.2969,49.4274,483.2969,285.4274,483.2969,285.4274,786.2969,275.4274,796.2969,39.4274,796.2969,39.4274,493.2969" style="stroke:#181818;stroke-width:1.0;"/><line style="stroke:#181818;stroke-width:1.0;" x1="275.4274" x2="285.4274" y1="493.2969" y2="483.2969"/><line style="stroke:#181818;stroke-width:1.0;" x1="39.4274" x2="275.4274" y1="493.2969" y2="493.2969"/><line style="stroke:#181818;stroke-width:1.0;" x1="275.4274" x2="275.4274" y1="493.2969" y2="796.2969"/><text fill="#000000" font-family="sans-serif" font-size="14" font-weight="bold" lengthAdjust="spacing" textLength="123" x="96.9274" y="509.292">&lt;&lt;container&gt;&gt;</text><text fill="#000000" font-family="sans-serif" font-size="14" font-weight="bold" lengthAdjust="spacing" textLength="56" x="130.4274" y="525.5889">Docker</text></g><!--MD5=[37213884b9b132011a56a332127c0dc2]
cluster nodejs--><g id="cluster_nodejs"><polygon fill="none" points="71.4274,565.2969,81.4274,555.2969,253.4274,555.2969,253.4274,672.2969,243.4274,682.2969,71.4274,682.2969,71.4274,565.2969" style="stroke:#181818;stroke-width:1.0;"/><line style="stroke:#181818;stroke-width:1.0;" x1="243.4274" x2="253.4274" y1="565.2969" y2="555.2969"/><line style="stroke:#181818;stroke-width:1.0;" x1="71.4274" x2="243.4274" y1="565.2969" y2="565.2969"/><line style="stroke:#181818;stroke-width:1.0;" x1="243.4274" x2="243.4274" y1="565.2969" y2="682.2969"/><text fill="#000000" font-family="sans-serif" font-size="14" font-weight="bold" lengthAdjust="spacing" textLength="106" x="105.4274" y="581.292">&lt;&lt;service&gt;&gt;</text><text fill="#000000" font-family="sans-serif" font-size="14" font-weight="bold" lengthAdjust="spacing" textLength="53" x="131.9274" y="597.5889">nodejs</text></g><!--MD5=[b30b38ce4569dacde3f8306bd4ec7604]
entity index--><g id="elem_index"><rect fill="#F1F1F1" height="39.2969" rx="2.5" ry="2.5" style="stroke:#181818;stroke-width:0.5;" width="101" x="278.9274" y="281.2969"/><polygon fill="#F1F1F1" points="362.9274,286.2969,362.9274,300.2969,374.9274,300.2969,374.9274,292.2969,368.9274,286.2969,362.9274,286.2969" style="stroke:#181818;stroke-width:0.5;"/><line style="stroke:#181818;stroke-width:0.5;" x1="368.9274" x2="368.9274" y1="286.2969" y2="292.2969"/><line style="stroke:#181818;stroke-width:0.5;" x1="374.9274" x2="368.9274" y1="292.2969" y2="292.2969"/><text fill="#000000" font-family="sans-serif" font-size="14" lengthAdjust="spacing" textLength="71" x="288.9274" y="307.292">index.html</text></g><!--MD5=[4541fb81c80c07473fe4b07432ef0971]
entity app--><g id="elem_app"><rect fill="#F1F1F1" height="39.2969" rx="2.5" ry="2.5" style="stroke:#181818;stroke-width:0.5;" width="86" x="157.4274" y="281.2969"/><polygon fill="#F1F1F1" points="226.4274,286.2969,226.4274,300.2969,238.4274,300.2969,238.4274,292.2969,232.4274,286.2969,226.4274,286.2969" style="stroke:#181818;stroke-width:0.5;"/><line style="stroke:#181818;stroke-width:0.5;" x1="232.4274" x2="232.4274" y1="286.2969" y2="292.2969"/><line style="stroke:#181818;stroke-width:0.5;" x1="238.4274" x2="232.4274" y1="292.2969" y2="292.2969"/><text fill="#000000" font-family="sans-serif" font-size="14" lengthAdjust="spacing" textLength="56" x="167.4274" y="307.292">App.vue</text></g><!--MD5=[717cda9951f396eab3faa274a4be74f0]
entity index.js--><g id="elem_index.js"><rect fill="#F1F1F1" height="39.2969" rx="2.5" ry="2.5" style="stroke:#181818;stroke-width:0.5;" width="82" x="145.4274" y="619.2969"/><polygon fill="#F1F1F1" points="210.4274,624.2969,210.4274,638.2969,222.4274,638.2969,222.4274,630.2969,216.4274,624.2969,210.4274,624.2969" style="stroke:#181818;stroke-width:0.5;"/><line style="stroke:#181818;stroke-width:0.5;" x1="216.4274" x2="216.4274" y1="624.2969" y2="630.2969"/><line style="stroke:#181818;stroke-width:0.5;" x1="222.4274" x2="216.4274" y1="630.2969" y2="630.2969"/><text fill="#000000" font-family="sans-serif" font-size="14" lengthAdjust="spacing" textLength="52" x="155.4274" y="645.292">index.js</text></g><!--MD5=[7468467f3b6b392f1d176d828c753b77]
entity db--><g id="elem_db"><path d="M58.4274,728.2969 C58.4274,718.2969 109.4274,718.2969 109.4274,718.2969 C109.4274,718.2969 160.4274,718.2969 160.4274,728.2969 L160.4274,769.8906 C160.4274,779.8906 109.4274,779.8906 109.4274,779.8906 C109.4274,779.8906 58.4274,779.8906 58.4274,769.8906 L58.4274,728.2969 " fill="#F1F1F1" style="stroke:#181818;stroke-width:0.5;"/><path d="M58.4274,728.2969 C58.4274,738.2969 109.4274,738.2969 109.4274,738.2969 C109.4274,738.2969 160.4274,738.2969 160.4274,728.2969 " fill="none" style="stroke:#181818;stroke-width:0.5;"/><text fill="#000000" font-family="sans-serif" font-size="14" lengthAdjust="spacing" textLength="82" x="68.4274" y="755.292">«database»</text><text fill="#000000" font-family="sans-serif" font-size="14" lengthAdjust="spacing" textLength="69" x="68.4274" y="771.5889">MongoDB</text></g><!--MD5=[8fc3522a43f8c7199df5e09e5bb0188e]
entity user--><g id="elem_user"><ellipse cx="61.4274" cy="52.3321" fill="#F1F1F1" rx="9.0352" ry="9.0352" style="stroke:#181818;stroke-width:0.5;"/><rect fill="#F1F1F1" height="36.2969" rx="9.0352" ry="9.0352" style="stroke:#181818;stroke-width:0.5;" width="51" x="35.9274" y="61.3673"/><text fill="#000000" font-family="sans-serif" font-size="14" lengthAdjust="spacing" textLength="31" x="45.9274" y="84.3624">user</text></g><!--MD5=[42320de4a0acaa05f7111737c8640c0a]
link user to browser--><g id="link_user_browser"><path d="M61.4274,97.5069 C61.4274,101.1994 61.4274,105.2032 61.4274,109.4661 C61.4274,111.5975 61.4274,113.7937 61.4274,116.0481 C61.4274,117.1753 61.4274,118.3171 61.4274,119.4726 C61.4274,120.0504 61.4274,120.6316 61.4274,121.2161 " fill="none" id="user-browser" style="stroke:#181818;stroke-width:1.0;"/></g><!--MD5=[d89dd9d314194155e0bc7d5ddf19cd62]
link frontend to nodejs--><g id="link_frontend_nodejs"><path d="M109.4274,369.5709 C109.4274,370.1014 109.4274,370.634 109.4274,371.1686 C109.4274,372.2379 109.4274,373.3154 109.4274,374.4009 C109.4274,376.5719 109.4274,378.7746 109.4274,381.0067 C109.4274,389.9351 109.4274,399.3329 109.4274,409.0437 C109.4274,428.4653 109.4274,449.1387 109.4274,469.8119 C109.4274,490.485 109.4274,511.1578 109.4274,530.5782 C109.4274,535.4333 109.4274,540.2101 109.4274,544.889 C109.4274,547.2285 109.4274,549.5435 109.4274,551.8316 C109.4274,552.9757 109.4274,554.113 109.4274,555.2433 " fill="none" id="frontend-nodejs" style="stroke:#181818;stroke-width:1.0;"/></g><!--MD5=[2641ed6ef32f7c8eca9996839e63f17e]
link nodejs to db--><g id="link_nodejs_db"><path d="M109.4274,682.4528 C109.4274,682.7169 109.4274,682.9815 109.4274,683.2464 C109.4274,684.3061 109.4274,685.3716 109.4274,686.441 C109.4274,688.58 109.4274,690.735 109.4274,692.8925 C109.4274,701.5225 109.4274,710.1919 109.4274,718.0269 " fill="none" id="nodejs-db" style="stroke:#181818;stroke-width:1.0;"/></g><!--MD5=[61ab92ad713c7b020f5fcbd6ad7c3225]
@startuml

title Physical View

person user 

node browser{
    node "Frontend App" as frontend{
    node "VueJS" as vue{
            artifact "index.html" as index

    artifact "App.vue" as app
    }
}   
}

cloud "Azure"{
    node "<<container>>\nDocker" as docker {
        node "<<service>>\nnodejs" as nodejs{
            artifact "index.js"
    }
    database "<<database>>\nMongoDB" as db{
    }
    }
}



user - - browser
frontend - - nodejs
nodejs - - db




@enduml

PlantUML version 1.2022.7(Mon Aug 22 19:01:30 CEST 2022)
(GPL source distribution)
Java Runtime: OpenJDK Runtime Environment
JVM: OpenJDK 64-Bit Server VM
Default Encoding: UTF-8
Language: en
Country: US
--></g></svg>